<svg viewBox="0 0 64 64" fill="none" xmlns="http://www.w3.org/2000/svg">
<path d="M0 22.866C0 14.8622 0 10.8602 1.55765 7.80316C2.92781 5.11409 5.11409 2.92781 7.80316 1.55765C10.8602 0 14.8622 0 22.866 0H41.134C49.1378 0 53.1398 0 56.1968 1.55765C58.8859 2.92781 61.0722 5.11409 62.4423 7.80316C64 10.8602 64 14.8622 64 22.866V41.134C64 49.1378 64 53.1398 62.4423 56.1968C61.0722 58.8859 58.8859 61.0722 56.1968 62.4423C53.1398 64 49.1378 64 41.134 64H22.866C14.8622 64 10.8602 64 7.80316 62.4423C5.11409 61.0722 2.92781 58.8859 1.55765 56.1968C0 53.1398 0 49.1378 0 41.134V22.866Z" fill="url(#paint0_linear_341_1568)"/>
<path opacity="0.1" d="M13.3675 13.4634C14.2095 12.6213 15.5648 12.6213 18.2754 12.6213H45.5879C48.2985 12.6213 49.6538 12.6213 50.4958 13.4634C51.3379 14.3055 51.3379 15.6597 51.3379 18.3681L51.3379 36.5446C51.3379 50.6622 36.0502 55.9027 32.6124 56.9026C32.1599 57.0343 31.7034 57.0343 31.2509 56.9026C27.8131 55.9027 12.5254 50.6622 12.5254 36.5446V34.8966C12.5254 34.8899 12.5254 34.8833 12.5254 34.8767V18.3681C12.5254 15.6597 12.5254 14.3055 13.3675 13.4634Z" fill="black"/>
<path d="M12.5938 27.25V35.4567C12.5938 49.2763 27.243 54.5896 31.0859 55.7457C31.6877 55.9267 32.3123 55.9267 32.914 55.7457C36.757 54.5896 51.4062 49.2763 51.4062 35.4567V27.25H12.5938Z" fill="#E25E00"/>
<path d="M18.3437 10C15.6332 10 14.2779 10 13.4358 10.8421C12.5938 11.6841 12.5938 13.0383 12.5938 15.7467C12.5938 19.3362 12.5938 24.7279 12.5938 32.2554C12.5938 45.611 26.3205 51.0092 30.6847 52.388C31.266 52.5717 31.5567 52.6635 32 52.6635C32.4433 52.6635 32.734 52.5717 33.3153 52.388C37.6795 51.0092 51.4062 45.611 51.4062 32.2554C51.4062 24.7279 51.4062 19.3362 51.4062 15.7467C51.4062 13.0383 51.4062 11.6841 50.5642 10.8421C49.7221 10 48.3668 10 45.6562 10H18.3437Z" fill="#FFAB00"/>
<path d="M47.1663 18.6387L46.1162 19.0477C44.8555 18.7739 43.3979 18.7293 42.4944 19.4229C41.8137 19.9461 41.3731 20.5255 41.0813 21.0365L40.5502 21.1745V22.5782L40.7521 22.7672L39.9026 22.2871L39.5022 22.2224V24.0243L40.0355 24.6223H39.6833L39.007 23.946C37.9088 24.25 35.0812 26.5205 32.48 28.8615C32.3025 28.7285 32.1149 28.5834 31.9209 28.4288V27.1962L30.198 26.8965C30.1987 26.895 29.4232 26.1835 29.4232 26.1835L29.3599 24.8875L29.513 24.7345V23.5018L28.9682 23.1798L29.4958 22.6522V21.4196L28.7469 21.8573C28.197 21.1134 28.1143 20.2207 28.588 19.7154C29.2212 19.0822 30.032 19.1311 30.5638 19.663L31.0368 20.1359L32.682 18.4907V17.258L31.6218 17.4305L31.123 16.9317C31.2438 17.0525 31.2431 17.0517 31.2431 17.0517C30.3346 16.1432 28.8618 16.1432 27.9534 17.0517L27.3762 17.6289C26.5748 18.4303 25.2753 18.4303 24.4739 17.6289L23.9866 17.1416L19.5727 21.5554L19.2205 21.0422L18.4306 21.4641V22.6968L18.9179 23.1841C19.7193 23.9855 19.7193 25.285 18.9179 26.0857L17.4668 24.6345L16.163 25.9384L15.2458 25.6243V26.8569L19.7804 31.3915L22.0021 29.1699V27.9372L20.791 27.5225C21.5939 26.9317 22.7259 26.992 23.4525 27.7187L23.9398 28.206L24.9727 27.1732L24.9741 27.1746L25.3881 26.7606V27.5886L26.0221 28.2225L27.2094 27.0352V27.866C28.6297 29.2863 29.4534 30.2703 30.0816 31.0997C29.871 31.3045 29.6661 31.5058 29.4721 31.6999C26.2168 34.9551 24.7844 37.3643 24.2446 38.8881L23.9621 38.9463V40.2415L23.9636 40.2436C23.9679 40.4995 24.0232 40.672 24.1052 40.7547C24.5573 41.2068 27.6651 40.8833 33.16 35.3885C33.2225 35.326 33.2901 35.257 33.354 35.1923C33.4381 35.2785 33.5158 35.3605 33.6063 35.451L38.3688 40.2135L38.3709 40.2113C38.386 40.2271 38.3989 40.2436 38.414 40.2587C39.2794 41.1241 40.6817 41.1241 41.5471 40.2587C41.9905 39.8153 42.2033 39.2309 42.1918 38.6495H42.1961L42.1954 37.3995L41.8691 37.5447L36.3749 31.9629C38.5772 29.484 40.6278 26.895 40.9153 25.8557V24.8696L41.4112 25.3655L42.0452 24.7316V23.9036L42.4592 24.3176C42.4592 24.3176 44.4674 25.0694 45.8035 22.3992C47.1397 19.7284 48.1955 19.7686 48.4715 19.9634V18.7307C48.2976 18.5992 48.0589 18.4928 47.1663 18.6387ZM48.2674 19.8204L48.2731 19.8218L48.2897 19.8333C48.2832 19.8283 48.2746 19.824 48.2674 19.8204Z" fill="#FF7B00"/>
<path d="M24.9748 25.9419L28.4644 22.4524L28.4629 22.451L29.4958 21.4181L29.0228 20.9452C28.2329 20.1553 28.0439 19.0621 28.5873 18.482C29.2205 17.8488 30.0313 17.8977 30.5631 18.4296L31.0361 18.9025L32.6813 17.2573L31.2337 15.8097C31.2409 15.8169 31.2431 15.8191 31.2431 15.8191C30.3346 14.9106 28.8618 14.9106 27.9534 15.8191L27.3762 16.3969C26.5748 17.1984 25.2753 17.1984 24.4739 16.3969L23.9866 15.9096L18.4313 21.4649L18.9187 21.9522C19.7201 22.7536 19.7201 24.0531 18.9187 24.8545L17.4675 23.4033L15.2458 25.6243L19.7804 30.1589L22.0021 27.9372L20.5509 26.486C21.3523 25.6846 22.6518 25.6846 23.4525 26.486L23.9398 26.9734L24.9727 25.9405L24.9748 25.9419Z" fill="white"/>
<path d="M28.8782 22.8667L25.3887 26.3562L26.0229 26.9905L29.5124 23.501L28.8782 22.8667Z" fill="white"/>
<path d="M31.9209 27.1955C31.1878 26.6119 30.3188 25.8514 29.1559 24.6885L27.2109 26.6334C28.3307 27.7532 29.0754 28.5985 29.6504 29.3144C30.3116 28.6739 31.09 27.9451 31.9209 27.1955Z" fill="white"/>
<path d="M42.495 18.1909C40.7966 19.4955 40.5508 21.1752 40.5508 21.1752L42.4598 23.0842C42.4598 23.0842 44.468 23.836 45.8041 21.1658C47.1403 18.4957 48.1961 18.5352 48.4721 18.73C47.8598 18.1845 44.1934 16.8857 42.495 18.1909Z" fill="white"/>
<path d="M34.0808 33.2158C36.9335 30.2473 40.528 26.0254 40.9161 24.6224L39.0071 22.7134C37.5531 23.1159 33.0638 26.9677 30.0881 29.8621C30.0867 29.8635 30.0845 29.8657 30.0831 29.8671C29.8725 30.0719 29.6677 30.2732 29.4736 30.4673C23.9788 35.9621 23.6553 39.07 24.1074 39.5221C24.5595 39.9742 27.6674 39.6507 33.1622 34.1559C33.4519 33.8662 33.7581 33.5521 34.0707 33.2265C34.0736 33.2222 34.0772 33.2193 34.0808 33.2158Z" fill="white"/>
<path d="M40.1367 21.5899L39.5024 22.2241L41.4113 24.133L42.0456 23.4988L40.1367 21.5899Z" fill="white"/>
<path d="M41.5011 35.8492L41.5026 35.8477L36.8724 31.2175C35.7813 32.4444 34.6996 33.5952 33.8472 34.4562L38.3703 38.9793L38.3724 38.9772C38.3868 38.993 38.3997 39.0095 38.4155 39.0246C39.2809 39.89 40.6832 39.89 41.5486 39.0246C42.4139 38.1592 42.4139 36.7569 41.5486 35.8916C41.5328 35.8765 41.5162 35.8635 41.5011 35.8492Z" fill="white"/>
<defs>
<linearGradient id="paint0_linear_341_1568" x1="32" y1="0" x2="32" y2="64" gradientUnits="userSpaceOnUse">
<stop stop-color="#5634AA"/>
<stop offset="0.315" stop-color="#4A2C94"/>
<stop offset="0.69" stop-color="#4A2C94"/>
<stop offset="1" stop-color="#381E84"/>
</linearGradient>
</defs>
</svg>
